# AST/ASF file generated using VICON BodyLanguage
# -----------------------------------------------
:version 1.10
:name VICON
:units
  mass 1.0
  length 0.45
  angle deg
:documentation
   .ast/.asf automatically generated from VICON data using
   VICON BodyBuilder and BodyLanguage model FoxedUp or BRILLIANT.MOD
:root
   order TX TY TZ RX RY RZ
   axis XYZ
   position 0 0 0  
   orientation 0 0 0 
:bonedata
  begin
     id 1 
     name lhipjoint
     direction 0.567149 -0.783011 0.255413 
     length 2.28399 
     axis 0 0 0  XYZ
  end
  begin
     id 2 
     name lfemur
     direction 0.34202 -0.939693 0  
     length 7.34031  
     axis 0 0 20  XYZ
    dof rx ry rz
    limits (-160.0 20.0)
           (-70.0 70.0)
           (-60.0 70.0)
  end
  begin
     id 3 
     name ltibia
     direction 0.34202 -0.939693 0   
     length 6.9833   
     axis 0 0 20   XYZ
    dof rx
    limits (-10.0 170.0)
  end
  begin
     id 4 
     name lfoot
     direction 0.136498 -0.375025 0.91691   
     length 2.33665   
     axis -90 7.62852e-016 20   XYZ
    dof rx rz
    limits (-45.0 90.0)
           (-70.0 20.0)
  end
  begin
     id 5 
     name ltoes
     direction 1.5367e-011 -4.21617e-011 1   
     length 1.15039   
     axis -90 7.62852e-016 20   XYZ
    dof rx
    limits (-90.0 20.0)
  end
  begin
     id 6 
     name rhipjoint
     direction -0.602854 -0.758518 0.247423   
     length 2.35775  
     axis 0 0 0  XYZ 
  end
  begin
     id 7 
     name rfemur
     direction -0.34202 -0.939693 0   
     length 7.43932   
     axis 0 0 -20   XYZ
    dof rx ry rz
    limits (-160.0 20.0)
           (-70.0 70.0)
           (-70.0 60.0)
  end
  begin
     id 8 
     name rtibia
     direction -0.34202 -0.939693 0   
     length 7.11893   
     axis 0 0 -20   XYZ
    dof rx
    limits (-10.0 170.0)
 end
 begin
     id 9 
     name rfoot
     direction -0.131771 -0.362037 0.922803   
     length 2.53019  
     axis -90 -7.62852e-016 -20   XYZ
    dof rx rz
    limits (-45.0 90.0)
           (-20.0 70.0)
  end
  begin
     id 10 
     name rtoes
     direction -1.53733e-011 -4.21932e-011 1   
     length 1.24596   
     axis -90 -7.62852e-016 -20   XYZ
    dof rx
    limits (-90.0 20.0)
  end
  begin
     id 11 
     name lowerback
     direction 0.0235427 0.999023 -0.0374125   
     length 2.21768   
     axis 0 0 0   XYZ
    dof rx ry rz
    limits (-20.0 45.0)
           (-30.0 30.0)
           (-30.0 30.0)
  end
  begin
     id 12 
     name upperback
     direction 0.0302156 0.996818 -0.073759   
     length 2.20352   
     axis 0 0 0   XYZ
    dof rx ry rz
    limits (-20.0 45.0)
           (-30.0 30.0)
           (-30.0 30.0)
  end
  begin
     id 13 
     name thorax
     direction 0.0187169 0.998235 -0.0563532   
     length 2.22103   
     axis 0 0 0   XYZ
    dof rx ry rz
    limits (-20.0 45.0)
           (-30.0 30.0)
           (-30.0 30.0)
  end
  begin
     id 14 
     name lowerneck
     direction -0.119528 0.987423 0.103481   
     length 1.72948   
     axis 0 0 0   XYZ
    dof rx ry rz
    limits (-20.0 45.0)
           (-30.0 30.0)
           (-30.0 30.0)
  end
  begin
     id 15 
     name upperneck
     direction 0.248049 0.963095 -0.104496   
     length 1.74979   
     axis 0 0 0   XYZ
    dof rx ry rz
    limits (-20.0 45.0)
           (-30.0 30.0)
           (-30.0 30.0)
  end
  begin
     id 16
     name head
     direction 0.0903589 0.994284 -0.056876  
     length 1.78268  
     axis 0 0 0   XYZ
    dof rx ry rz
    limits (-20.0 45.0)
           (-30.0 30.0)
           (-30.0 30.0)
  end
  begin
     id 17 
     name lclavicle
     direction 0.946008 0.242039 -0.215608  
     length 3.80783  
     axis 0 0 0   XYZ
    dof ry rz
    limits (-20.0 10.0)
           (0.0 20.0)
  end
  begin
     id 18 
     name lhumerus
     direction 1 -4.48991e-011 -2.25695e-027   
     length 4.83125   
     axis 180 -30 -90   XYZ
    dof rx ry rz
    limits (-60.0 90.0)
           (-90.0 90.0)
           (-90.0 90.0)
  end
  begin
     id 19
     name lradius
     direction 0.999991 0.00366712 -0.00211721   
     length 3.00391   
     axis 180 -30 -90   XYZ
    dof rx
    limits (-10.0 170.0)
  end
  begin
     id 20
     name lwrist
     direction 0.999991 0.00393016 -0.00141978   
     length 1.50195   
     axis -1.00488e-014 90 90   XYZ
    dof ry
    limits (-180.0 0.0)
 end
  begin
     id 21 
     name lhand
     direction 1 -4.49123e-011 2.72098e-026   
     length 1.2717   
     axis -1.73687e-014 90 90   XYZ
    dof rx rz
    limits (-90.0 90.0)
           (-45.0 45.0)
  end
  begin
     id 22 
     name lfingers
     direction 1 -4.48678e-011 5.4479e-026   
     length 1.02528   
     axis -3.47372e-014 90 90   XYZ
    dof rx
    limits (0.0 90.0)
  end
  begin
     id 23
     name lthumb
     direction 0.707107 -6.34851e-011 0.707107   
     length 1.4721   
     axis -90 45 -1.62303e-014   XYZ
    dof rx rz
    limits (-45.0 45.0)
           (-45.0 45.0)
  end
  begin
     id 24 
     name rclavicle
     direction -0.981723 0.189447 -0.0181673   
     length 3.74989  
     axis 0 0 0   XYZ 
    dof ry rz
    limits (-10.0 20.0)
           (-20.0 0.0)
  end
  begin
     id 25 
     name rhumerus
     direction -1 -4.48985e-011 2.38206e-027  
     length 4.61118   
     axis 180 30 90   XYZ
    dof rx ry rz
    limits (-90.0 60.0)
           (-90.0 90.0)
           (-90.0 90.0)
  end
  begin
     id 26 
     name rradius
     direction -1 -4.48977e-011 7.41019e-027   
     length 2.91491   
     axis 180 30 90   XYZ
    dof rx
    limits (-10.0 170.0)
  end
  begin
     id 27 
     name rwrist
     direction -1 -4.48549e-011 1.3624e-026   
     length 1.45745   
     axis -1.00488e-014 -90 -90   XYZ
    dof ry
    limits (-180.0 0.0)
  end
  begin
     id 28
     name rhand
     direction -1 -4.49107e-011 2.72109e-026   
     length 1.30769   
     axis -1.73687e-014 -90 -90   XYZ
    dof rx rz
    limits (-90.0 90.0)
           (-45.0 45.0)
  end
  begin
     id 29
     name rfingers
     direction -1 -4.48919e-011 5.44468e-026   
     length 1.05429   
     axis -3.47372e-014 -90 -90   XYZ
    dof rx
    limits (0.0 90.0)
  end
  begin
     id 30
     name rthumb
     direction -0.707107 -6.35315e-011 0.707107   
     length 1.51376   
     axis -90 -45 1.62303e-014   XYZ
    dof rx rz
    limits (-45.0 45.0)
           (-45.0 45.0)
  end
:hierarchy
  begin
    root lhipjoint rhipjoint lowerback
    lhipjoint lfemur
    lfemur ltibia
    ltibia lfoot
    lfoot ltoes
    rhipjoint rfemur
    rfemur rtibia
    rtibia rfoot
    rfoot rtoes
    lowerback upperback
    upperback thorax
    thorax lowerneck lclavicle rclavicle
    lowerneck upperneck
    upperneck head
    lclavicle lhumerus
    lhumerus lradius
    lradius lwrist
    lwrist lhand lthumb
    lhand lfingers
    rclavicle rhumerus
    rhumerus rradius
    rradius rwrist
    rwrist rhand rthumb
    rhand rfingers
  end

#!OML:ASF X:\für Bonn\!DataBase\2005_08_11_Bastian_Final\c3d\Bastian.ASF
:FULLY-SPECIFIED
:DEGREES
1
root 2.29023 14.5949 -20.5989 538.631 -185.905 -182.896
lowerback 16.3997 -2.20002 4.3237
upperback 4.228 -2.17433 -0.170833
thorax -4.83449 -1.09699 -2.18763
lowerneck -10.4613 -4.21466 -1.06222
upperneck -16.4123 -4.64382 9.06182
head -3.32658 -2.50621 3.2041
rclavicle -1.9133e-014 6.75868e-015
rhumerus -33.5353 4.85994 -90.43
rradius 42.9054
rwrist -1.67307
rhand -25.7408 13.5606
rfingers 7.12502
rthumb 0.796055 -16.4177
lclavicle -1.9133e-014 6.75868e-015
lhumerus -18.8759 11.7699 78.8366
lradius 39.0457
lwrist -159.992
lhand -27.1725 7.62033
lfingers 7.12502
lthumb -0.586687 37.5993
rfemur -39.4717 -7.37202 21.9391
rtibia 82.5069
rfoot -32.5101 2.00309
rtoes -1.45352
lfemur -25.9546 3.12524 -14.6256
ltibia 81.9821
lfoot -41.2413 -13.7053
ltoes -7.87616
2
root 2.27431 14.6604 -20.3465 538.608 -185.796 -182.898
lowerback 15.5608 -2.18224 4.2116
upperback 4.25199 -2.21461 -0.18974
thorax -4.35822 -1.10881 -2.15939
lowerneck -11.068 -4.16754 -1.22941
upperneck -15.4897 -4.61582 9.22118
head -2.88946 -2.45256 3.23513
rclavicle -3.57315e-014 -1.33186e-014
rhumerus -32.6222 6.81409 -90.6683
rradius 46.3203
rwrist 0.0912867
rhand -25.9598 14.2026
rfingers 7.12502
rthumb 0.584552 -15.7763
lclavicle -3.57315e-014 -1.33186e-014
lhumerus -17.2569 8.9488 79.3179
lradius 41.7318
lwrist -158.031
lhand -27.7322 9.41484
lfingers 7.12502
lthumb -1.12722 39.3916
rfemur -37.8524 -7.34752 22.0191
rtibia 81.798
rfoot -33.0366 1.96846
rtoes -0.621244
lfemur -24.2487 3.26593 -14.3226
ltibia 80.8247
lfoot -40.6897 -13.9991
ltoes -8.63012
3
root 2.257 14.7604 -20.0798 538.653 -185.701 -182.894
lowerback 14.4067 -2.17156 4.04358
upperback 4.28432 -2.28467 -0.189231
thorax -3.70146 -1.13285 -2.08427
lowerneck -11.6504 -4.12828 -1.40142
upperneck -14.4597 -4.61021 9.33983
head -2.42648 -2.4059 3.25352
rclavicle -3.77194e-014 6.75868e-015
rhumerus -31.826 8.88576 -90.7098
rradius 49.5584
rwrist 1.99488
rhand -26.2907 15.3423
rfingers 7.12502
rthumb 0.265 -14.6373
lclavicle -3.77194e-014 6.75868e-015
lhumerus -15.8466 6.20466 79.5478
lradius 44.7467
lwrist -156.079
lhand -28.3977 11.8328
lfingers 7.12502
lthumb -1.77003 41.8052
rfemur -36.0607 -7.289 22.1151
rtibia 80.6835
rfoot -33.4161 1.82042
rtoes -0.2608
lfemur -22.3868 3.44591 -13.989
ltibia 79.2839
lfoot -39.8692 -14.2225
ltoes -9.60617
4
root 2.24053 14.8846 -19.8029 538.698 -185.602 -182.795
lowerback 13.1418 -2.15626 3.8045
upperback 4.26529 -2.35947 -0.236881
thorax -3.03615 -1.16088 -2.0242
lowerneck -12.1686 -4.08549 -1.55823
upperneck -13.2746 -4.61338 9.4425
head -1.92922 -2.36059 3.26545
rclavicle 4.67144e-015 -5.56597e-015
rhumerus -31.234 11.0515 -90.6832
rradius 52.9103
rwrist 3.04931
rhand -25.9464 15.9314
rfingers 7.12502
rthumb 0.597536 -14.0475
lclavicle 4.67144e-015 -5.56597e-015
lhumerus -14.7968 3.51394 79.5454
lradius 48.3427
lwrist -154.496
lhand -28.8256 13.2197
lfingers 7.12502
lthumb -2.18328 43.1882
rfemur -34.0592 -7.21528 22.0763
rtibia 79.1765
rfoot -33.6619 1.80587
rtoes -0.194187
lfemur -20.3133 3.61867 -13.7581
ltibia 77.3677
lfoot -38.8319 -14.2778
ltoes -11.1624
5
root 2.22363 15.0346 -19.515 538.837 -185.539 -182.598
lowerback 11.6567 -2.14704 3.42243
upperback 4.18927 -2.45901 -0.284106
thorax -2.30345 -1.20292 -1.88905
lowerneck -12.5609 -4.03957 -1.71688
upperneck -12.1071 -4.61539 9.48519
head -1.46713 -2.31672 3.26702
rclavicle -4.63665e-014 -6.36111e-015
rhumerus -30.8271 13.1683 -90.4705
rradius 56.6027
rwrist 4.06089
rhand -24.9241 15.7551
rfingers 7.12502
rthumb 1.58484 -14.2188
lclavicle -4.63665e-014 -6.36111e-015
lhumerus -14.0727 1.01387 79.3285
lradius 52.6233
lwrist -153.613
lhand -29.5947 13.1016
lfingers 7.12502
lthumb -2.92601 43.0613
rfemur -31.9397 -7.12613 21.9459
rtibia 77.2588
rfoot -33.7492 1.73449
rtoes -0.894911
lfemur -18.1651 3.75419 -13.6386
ltibia 75.0591
lfoot -37.4137 -14.3688
ltoes -12.508
6
root 2.20726 15.2119 -19.214 539.132 -185.467 -182.202
lowerback 9.91276 -2.12161 2.86053
upperback 3.99705 -2.54973 -0.405642
thorax -1.54003 -1.24465 -1.74259
lowerneck -12.6197 -3.98306 -1.75275
upperneck -11.1035 -4.6103 9.41386
head -1.1252 -2.28553 3.2232
rclavicle 2.43014e-014 4.77083e-015
rhumerus -30.7469 15.1515 -90.1998
rradius 60.5759
rwrist 4.70697
rhand -24.1544 16.3998
rfingers 7.12502
rthumb 2.32823 -13.5672
lclavicle 2.43014e-014 4.77083e-015
lhumerus -13.6417 -1.35979 78.8925
lradius 57.128
lwrist -153.145
lhand -30.9161 12.0456
lfingers 7.12502
lthumb -4.20212 41.9839
rfemur -29.8059 -6.98653 21.5905
rtibia 74.9489
rfoot -33.6073 1.74924
rtoes -2.08613
lfemur -16.0449 3.92305 -13.7649
ltibia 72.3664
lfoot -35.6462 -14.2437
ltoes -14.4374
7
root 2.19202 15.4107 -18.8991 539.483 -185.36 -181.743
lowerback 8.02505 -2.11312 2.26621
upperback 3.67065 -2.64483 -0.56972
thorax -0.828788 -1.29298 -1.62888
lowerneck -12.3154 -3.89053 -1.78318
upperneck -10.2418 -4.54592 9.34902
head -0.89574 -2.23734 3.19625
rclavicle 2.77802e-014 1.74931e-014
rhumerus -31.0991 17.1095 -89.9579
rradius 64.6039
rwrist 4.85936
rhand -23.5037 17.6304
rfingers 7.12502
rthumb 2.95663 -12.3288
lclavicle 2.77802e-014 1.74931e-014
lhumerus -13.5367 -3.5922 78.2459
lradius 61.6107
lwrist -152.893
lhand -32.2624 10.7061
lfingers 7.12502
lthumb -5.50211 40.6147
rfemur -27.5113 -6.7915 21.1669
rtibia 72.2546
rfoot -33.2251 1.67456
rtoes -3.73713
lfemur -13.8664 4.10034 -13.9862
ltibia 69.3069
lfoot -33.4424 -14.0156
ltoes -16.6432
8
root 2.17768 15.6363 -18.5673 539.668 -185.184 -181.484
lowerback 6.19144 -2.10057 1.90684
upperback 3.25632 -2.69354 -0.715349
thorax -0.236385 -1.31906 -1.63221
lowerneck -11.7092 -3.78961 -1.78239
upperneck -9.41802 -4.46991 9.27408
head -0.732298 -2.1925 3.16831
rclavicle 1.14301e-015 -1.23246e-014
rhumerus -31.8113 18.9359 -89.7704
rradius 68.2873
rwrist 5.17912
rhand -22.8811 18.6281
rfingers 7.12502
rthumb 3.5579 -11.322
lclavicle 1.14301e-015 -1.23246e-014
lhumerus -13.7065 -5.63878 77.4542
lradius 65.915
lwrist -152.645
lhand -33.4202 9.96734
lfingers 7.12502
lthumb -6.61986 39.8439
rfemur -24.7374 -6.46879 20.9522
rtibia 69.1423
rfoot -32.5525 1.49255
rtoes -6.13101
lfemur -11.4147 4.31906 -13.9514
ltibia 65.888
lfoot -30.7327 -13.821
ltoes -18.8106
9
root 2.16396 15.8919 -18.2217 539.901 -184.984 -181.191
lowerback 4.2223 -2.10711 1.53335
upperback 2.82043 -2.75337 -0.891341
thorax 0.415083 -1.35039 -1.66623
lowerneck -11.1702 -3.66292 -1.72551
upperneck -8.48422 -4.3727 9.20119
head -0.526645 -2.13445 3.12974
rclavicle -1.83876e-015 1.31198e-014
rhumerus -32.5753 20.6874 -89.6258
rradius 71.7533
rwrist 5.38571
rhand -22.338 19.5769
rfingers 7.12502
rthumb 4.0824 -10.3638
lclavicle -1.83876e-015 1.31198e-014
lhumerus -13.9555 -7.38793 76.51
lradius 70.1549
lwrist -152.158
lhand -34.055 10.1812
lfingers 7.12502
lthumb -7.23265 40.0376
rfemur -21.8653 -6.02114 20.7077
rtibia 65.7672
rfoot -31.2029 1.17339
rtoes -9.54827
lfemur -8.94628 4.47612 -13.9779
ltibia 62.2053
lfoot -27.4776 -13.5892
ltoes -21.0412
10
root 2.15003 16.1651 -17.8719 539.958 -184.846 -180.849
lowerback 2.39369 -2.15919 1.10199
upperback 2.44293 -2.85401 -1.07939
thorax 1.05485 -1.40259 -1.67957
lowerneck -10.6813 -3.52882 -1.69339
upperneck -7.47736 -4.26761 9.13966
head -0.29047 -2.0686 3.09978
rclavicle -7.55382e-015 7.95139e-015
rhumerus -33.2351 22.3048 -89.5271
rradius 75.1639
rwrist 5.11788
rhand -21.1047 19.9739
rfingers 7.12502
rthumb 5.27328 -9.94045
lclavicle -7.55382e-015 7.95139e-015
lhumerus -14.2366 -8.91471 75.4808
lradius 74.0926
lwrist -151.291
lhand -34.1259 11.0069
lfingers 7.12502
lthumb -7.30106 40.8609
rfemur -18.7557 -5.56639 20.4128
rtibia 62.1626
rfoot -29.4879 0.890899
rtoes -12.3351
lfemur -6.27002 4.51329 -14.0664
ltibia 58.3024
lfoot -23.5812 -13.2268
ltoes -23.2188
11
root 2.13652 16.4289 -17.5296 539.975 -184.772 -180.445
lowerback 0.648478 -2.2564 0.58681
upperback 2.03931 -2.99419 -1.26592
thorax 1.6286 -1.47677 -1.64662
lowerneck -10.1994 -3.37037 -1.61802
upperneck -6.34845 -4.14368 9.00693
head -0.019789 -1.99131 3.03875
rclavicle 1.47101e-014 2.38542e-015
rhumerus -33.9508 23.8236 -89.4576
rradius 78.5178
rwrist 4.8247
rhand -19.9228 20.2492
rfingers 7.12502
rthumb 6.41433 -9.63364
lclavicle 1.47101e-014 2.38542e-015
lhumerus -14.7003 -10.2492 74.4552
lradius 77.881
lwrist -150.462
lhand -34.7581 11.8386
lfingers 7.12502
lthumb -7.91127 41.6706
rfemur -15.7835 -5.06926 20.0623
rtibia 58.5614
rfoot -27.2448 0.749151
rtoes -13.9925
lfemur -3.6912 4.42988 -14.2479
ltibia 54.4244
lfoot -18.9727 -12.8009
ltoes -25.0114
